<svg width="1920" height="307" viewBox="0 0 1920 307" fill="none" xmlns="http://www.w3.org/2000/svg">
    <path d="M42.8298 293.253H157.67V328.086H0V0H42.8298V293.253ZM187.152 198.17C187.152 171.81 192.487 148.745 203.155 128.975C213.824 108.892 228.414 93.3579 246.926 82.3746C265.752 71.3913 286.618 65.8997 309.523 65.8997C332.115 65.8997 351.726 70.7636 368.356 80.4917C384.986 90.2197 397.38 102.458 405.537 117.207V70.1361H448.838V328.086H405.537V280.073C397.066 295.136 384.358 307.688 367.414 317.73C350.785 327.458 331.331 332.322 309.053 332.322C286.148 332.322 265.439 326.674 246.926 315.377C228.414 304.08 213.824 288.233 203.155 267.835C192.487 247.437 187.152 224.216 187.152 198.17ZM405.537 198.64C405.537 179.184 401.616 162.238 393.771 147.803C385.927 133.369 375.259 122.385 361.766 114.854C348.588 107.009 333.998 103.086 317.995 103.086C301.993 103.086 287.402 106.852 274.224 114.383C261.046 121.914 250.535 132.898 242.69 147.333C234.846 161.768 230.923 178.713 230.923 198.17C230.923 217.94 234.846 235.199 242.69 249.948C250.535 264.383 261.046 275.524 274.224 283.368C287.402 290.9 301.993 294.666 317.995 294.666C333.998 294.666 348.588 290.9 361.766 283.368C375.259 275.524 385.927 264.383 393.771 249.948C401.616 235.199 405.537 218.097 405.537 198.64ZM553.221 292.783H679.828V328.086H504.273V292.783L629.468 104.969H505.214V70.1361H678.887V104.969L553.221 292.783ZM957.553 70.1361L802.236 449.53H757.994L808.825 325.262L704.81 70.1361H752.346L833.299 279.132L913.311 70.1361H957.553ZM1228.22 0C1263.99 0 1294.89 6.74686 1320.94 20.2406C1347.3 33.4205 1367.37 52.4059 1381.18 77.1967C1395.3 101.987 1402.36 131.171 1402.36 164.749C1402.36 198.327 1395.3 227.511 1381.18 252.301C1367.37 276.778 1347.3 295.607 1320.94 308.787C1294.89 321.653 1263.99 328.086 1228.22 328.086H1126.09V0H1228.22ZM1228.22 292.783C1270.58 292.783 1302.89 281.643 1325.17 259.362C1347.46 236.768 1358.59 205.23 1358.59 164.749C1358.59 123.954 1347.3 92.1026 1324.7 69.1946C1302.42 46.2867 1270.27 34.8327 1228.22 34.8327H1168.92V292.783H1228.22ZM1694.18 189.226C1694.18 197.385 1693.71 206.015 1692.77 215.115H1486.62C1488.19 240.534 1496.82 260.461 1512.51 274.896C1528.51 289.017 1547.8 296.078 1570.4 296.078C1588.91 296.078 1604.28 291.841 1616.52 283.368C1629.08 274.582 1637.86 262.971 1642.88 248.536H1689C1682.1 273.326 1668.29 293.567 1647.58 309.258C1626.88 324.634 1601.15 332.322 1570.4 332.322C1545.92 332.322 1523.96 326.831 1504.5 315.848C1485.37 304.864 1470.31 289.33 1459.32 269.247C1448.35 248.849 1442.85 225.314 1442.85 198.64C1442.85 171.967 1448.19 148.588 1458.85 128.504C1469.53 108.421 1484.43 93.044 1503.56 82.3746C1523.02 71.3913 1545.3 65.8997 1570.4 65.8997C1594.87 65.8997 1616.52 71.2344 1635.35 81.9039C1654.17 92.5733 1668.61 107.322 1678.65 126.151C1689 144.666 1694.18 165.691 1694.18 189.226ZM1649.94 180.283C1649.94 163.965 1646.33 150 1639.11 138.389C1631.9 126.464 1622.02 117.521 1609.46 111.559C1597.22 105.282 1583.57 102.144 1568.51 102.144C1546.86 102.144 1528.36 109.048 1512.98 122.856C1497.92 136.664 1489.29 155.806 1487.09 180.283H1649.94ZM1846.73 288.546L1926.74 70.1361H1972.39L1871.2 328.086H1821.31L1720.12 70.1361H1766.25L1846.73 288.546Z" fill="white"/>
</svg>