<svg width="21" height="21" viewBox="0 0 21 21" fill="none" xmlns="http://www.w3.org/2000/svg">
<path d="M0.484042 17.5455C-0.14877 18.1783 -0.178904 19.3083 0.499109 19.9562C1.14699 20.6342 2.29208 20.6041 2.92489 19.9713L10.2324 12.6638L17.5398 19.9713C18.1877 20.6191 19.3027 20.6342 19.9506 19.9562C20.6286 19.3083 20.6135 18.1783 19.9656 17.5304L12.6581 10.2229L19.9656 2.93052C20.6135 2.26758 20.6286 1.15262 19.9506 0.504743C19.3027 -0.17327 18.1877 -0.158203 17.5398 0.489676L10.2324 7.79715L2.92489 0.489676C2.29208 -0.143136 1.14699 -0.17327 0.499109 0.504743C-0.178904 1.15262 -0.14877 2.28265 0.484042 2.91546L7.79152 10.2229L0.484042 17.5455Z" fill="#1C1C1E"/>
</svg>
