<svg width="40" height="27" viewBox="0 0 40 27" fill="none" xmlns="http://www.w3.org/2000/svg">
<path d="M16.144 11.8C16.144 11.8 19.928 11.506 19.928 6.882C19.928 2.252 16.832 0 12.908 0H0V25.852H12.908C12.908 25.852 20.79 26.11 20.79 18.22C20.788 18.218 21.132 11.8 16.144 11.8ZM5.688 4.592H12.908C12.908 4.592 14.664 4.592 14.664 7.28C14.664 9.972 13.632 10.362 12.46 10.362H5.688V4.592ZM12.542 21.256H5.688V14.346H12.908C12.908 14.346 15.524 14.31 15.524 17.896C15.524 20.92 13.57 21.234 12.542 21.256ZM31.298 6.574C21.756 6.574 21.764 16.508 21.764 16.508C21.764 16.508 21.112 26.39 31.298 26.39C31.298 26.39 39.784 26.898 39.784 19.516H35.42C35.42 19.516 35.564 22.298 31.444 22.298C31.444 22.298 27.076 22.602 27.076 17.798H39.922C39.924 17.796 41.34 6.574 31.298 6.574ZM35.18 14.346H27.032C27.032 14.346 27.564 10.362 31.396 10.362C35.228 10.362 35.18 14.346 35.18 14.346ZM36.194 1.518H25.96V4.706H36.194V1.518Z" fill="white"/>
</svg>
