<svg width="35" height="35" viewBox="0 0 35 35" fill="none" xmlns="http://www.w3.org/2000/svg">
<path fill-rule="evenodd" clip-rule="evenodd" d="M34.5277 13.9298C34.2991 12.8093 33.9555 11.7059 33.511 10.6518C33.0743 9.61671 32.5324 8.62046 31.9031 7.68913C31.2786 6.76556 30.5625 5.89773 29.7737 5.10963C28.9856 4.32011 28.117 3.60327 27.1942 2.98026C26.2629 2.34879 25.2652 1.80904 24.2316 1.37089C23.1775 0.927099 22.0747 0.582788 20.9536 0.3556C19.8056 0.119944 18.6231 0 17.442 0C16.2595 0 15.0784 0.119944 13.9291 0.3556C12.8086 0.582788 11.7051 0.927804 10.6518 1.37089C9.61812 1.80904 8.62046 2.3495 7.68772 2.98026C6.76415 3.60327 5.89632 4.3194 5.10821 5.10963C4.3194 5.89773 3.60397 6.76627 2.98026 7.68913C2.3502 8.62046 1.80904 9.61671 1.3723 10.6518C0.925687 11.7059 0.583493 12.8093 0.354188 13.9298C0.119239 15.0763 0 16.2588 0 17.4406C0 18.6245 0.119239 19.807 0.354188 20.9543C0.583493 22.0747 0.926393 23.1782 1.3716 24.2316C1.80834 25.2652 2.3502 26.2643 2.97956 27.1956C3.60327 28.1192 4.3187 28.9856 5.10751 29.7751C5.89561 30.5632 6.76415 31.2786 7.68702 31.9031C8.61976 32.5331 9.61741 33.0743 10.651 33.511C11.7037 33.9576 12.8079 34.2977 13.9283 34.5277C15.0777 34.7648 16.2588 34.8833 17.4413 34.8833C18.6224 34.8833 19.8049 34.7648 20.9528 34.5277C22.0747 34.2977 23.1768 33.9569 24.2309 33.511C25.2645 33.0743 26.2621 32.5324 27.1935 31.9031C28.1171 31.2786 28.9849 30.5639 29.773 29.7751C30.5611 28.9856 31.2779 28.1185 31.9023 27.1956C32.5324 26.2643 33.0736 25.2652 33.5103 24.2316C33.9555 23.1789 34.2984 22.0747 34.527 20.9543C34.7627 19.8063 34.8812 18.6238 34.8812 17.4406C34.8819 16.2588 34.7634 15.0763 34.5277 13.9298ZM32.3306 17.2931C32.1154 17.2466 27.0749 16.1614 21.9569 16.8049C21.8524 16.5502 21.7459 16.2934 21.6358 16.0358C21.3261 15.307 20.9924 14.5845 20.6452 13.8754C26.5281 11.4751 28.9164 8.02145 28.944 7.98053C31.0331 10.5163 32.2968 13.7576 32.3306 17.2931ZM27.2788 6.2625C27.2415 6.32036 25.1206 9.54897 19.4987 11.6565C16.9524 6.97793 14.1548 3.26178 13.9312 2.96686C15.0572 2.69381 16.2313 2.54635 17.4413 2.54635C21.2132 2.54635 24.6542 3.95181 27.2788 6.2625ZM13.8733 2.97885C13.8733 2.98026 13.8705 2.98167 13.8705 2.98167C13.8705 2.98167 13.8543 2.98591 13.8267 2.99155C13.8416 2.98732 13.8585 2.98449 13.8733 2.97885ZM11.0857 3.96945C11.2839 4.23544 14.0391 7.96994 16.6172 12.5518C9.46501 14.4519 3.25825 14.3778 2.86455 14.3707C3.83257 9.75711 6.93207 5.9316 11.0857 3.96945ZM2.54635 17.4406C2.54635 17.2819 2.5534 17.1266 2.55905 16.97C2.82151 16.9756 10.1819 17.1429 17.8505 14.8477C18.2774 15.6831 18.6859 16.5318 19.0591 17.3799C18.8623 17.435 18.6661 17.4942 18.4721 17.5577C10.4337 20.1556 6.35634 27.3889 6.35634 27.3889C6.35634 27.3889 6.36198 27.3932 6.36198 27.396C3.99062 24.7565 2.54635 21.2675 2.54635 17.4406ZM17.4413 32.337C13.8366 32.337 10.5304 31.0557 7.95371 28.9235C8.14915 29.0822 8.28744 29.1838 8.28744 29.1838C8.28744 29.1838 11.1428 22.9566 19.9757 19.879C20.0088 19.8663 20.042 19.8571 20.0751 19.8472C22.1713 25.2934 23.0364 29.8548 23.2572 31.1566C21.4693 31.9172 19.5043 32.337 17.4413 32.337ZM25.7647 29.7963C25.613 28.8967 24.8193 24.5251 22.8656 19.1565C27.6733 18.3875 31.841 19.7061 32.1479 19.807C31.4847 23.9571 29.1091 27.5371 25.7647 29.7963Z" fill="white"/>
</svg>
