<svg width="174" height="50" viewBox="0 0 174 50" fill="none" xmlns="http://www.w3.org/2000/svg">
<mask id="mask0_1807_551" style="mask-type:luminance" maskUnits="userSpaceOnUse" x="9" y="9" width="31" height="32">
<path d="M39.9615 9.16699H9.99023V40.3435H39.9615V9.16699Z" fill="white"/>
</mask>
<g mask="url(#mask0_1807_551)">
<path d="M26.7202 26.716H11.6071C10.2127 26.716 9.47472 25.0652 10.4038 24.0244L22.6998 10.2514C24.6745 8.03954 28.3338 9.43767 28.3338 12.404V25.1008C28.3338 25.9928 27.6113 26.716 26.7202 26.716Z" fill="#0D0E0E"/>
<path d="M23.1616 22.7949H38.2746C39.6691 22.7949 40.407 24.4457 39.4778 25.4865L27.1819 39.2594C25.2072 41.4714 21.5479 40.0733 21.5479 37.1068V24.4102C21.5479 23.5181 22.2703 22.7949 23.1616 22.7949Z" fill="#0D0E0E"/>
</g>
<path d="M54.6725 31.033H60.5418V33.333H51.8252V15.958H54.6725V31.033ZM61.9739 26.383C61.9739 24.9997 62.257 23.7747 62.8231 22.708C63.4059 21.6413 64.1884 20.8163 65.1708 20.233C66.1699 19.633 67.2688 19.333 68.4677 19.333C69.55 19.333 70.4907 19.5497 71.29 19.983C72.1058 20.3997 72.7552 20.9247 73.2381 21.558V19.558H76.1103V33.333H73.2381V31.283C72.7552 31.933 72.0975 32.4747 71.265 32.908C70.4325 33.3413 69.4834 33.558 68.4177 33.558C67.2355 33.558 66.1532 33.258 65.1708 32.658C64.1884 32.0413 63.4059 31.1913 62.8231 30.108C62.257 29.008 61.9739 27.7663 61.9739 26.383ZM73.2381 26.433C73.2381 25.483 73.0383 24.658 72.6387 23.958C72.2557 23.258 71.7479 22.7247 71.1151 22.358C70.4824 21.9913 69.7997 21.808 69.0671 21.808C68.3345 21.808 67.6518 21.9913 67.0191 22.358C66.3863 22.708 65.8702 23.233 65.4705 23.933C65.0876 24.6163 64.8961 25.433 64.8961 26.383C64.8961 27.333 65.0876 28.1663 65.4705 28.883C65.8702 29.5997 66.3863 30.1497 67.0191 30.533C67.6684 30.8997 68.3511 31.083 69.0671 31.083C69.7997 31.083 70.4824 30.8997 71.1151 30.533C71.7479 30.1663 72.2557 29.633 72.6387 28.933C73.0383 28.2163 73.2381 27.383 73.2381 26.433ZM82.3727 31.008H88.6166V33.333H79.0758V31.008L85.3448 21.883H79.0758V19.558H88.6166V21.883L82.3727 31.008ZM103.994 19.558L95.5525 39.808H92.6053L95.4026 33.108L89.9828 19.558H93.1548L97.0261 30.058L101.047 19.558H103.994ZM118.301 15.958C120.149 15.958 121.764 16.3163 123.146 17.033C124.545 17.733 125.619 18.7497 126.368 20.083C127.134 21.3997 127.517 22.9413 127.517 24.708C127.517 26.4747 127.134 28.008 126.368 29.308C125.619 30.608 124.545 31.608 123.146 32.308C121.764 32.9913 120.149 33.333 118.301 33.333H112.631V15.958H118.301ZM118.301 31.008C120.332 31.008 121.889 30.458 122.971 29.358C124.054 28.258 124.595 26.708 124.595 24.708C124.595 22.6913 124.054 21.1163 122.971 19.983C121.889 18.8497 120.332 18.283 118.301 18.283H115.478V31.008H118.301ZM142.952 26.108C142.952 26.6247 142.919 27.0913 142.852 27.508H132.337C132.42 28.608 132.828 29.4913 133.561 30.158C134.294 30.8247 135.193 31.158 136.258 31.158C137.79 31.158 138.873 30.5163 139.505 29.233H142.577C142.161 30.4997 141.404 31.5413 140.305 32.358C139.222 33.158 137.874 33.558 136.258 33.558C134.943 33.558 133.761 33.2663 132.712 32.683C131.68 32.083 130.864 31.2497 130.264 30.183C129.681 29.0997 129.39 27.8497 129.39 26.433C129.39 25.0163 129.673 23.7747 130.239 22.708C130.822 21.6247 131.63 20.7913 132.662 20.208C133.711 19.6247 134.91 19.333 136.258 19.333C137.557 19.333 138.714 19.6163 139.73 20.183C140.746 20.7497 141.537 21.5497 142.103 22.583C142.669 23.5997 142.952 24.7747 142.952 26.108ZM139.98 25.208C139.963 24.158 139.589 23.3163 138.856 22.683C138.123 22.0497 137.216 21.733 136.134 21.733C135.151 21.733 134.31 22.0497 133.611 22.683C132.912 23.2997 132.495 24.1413 132.362 25.208H139.98ZM151.073 30.783L154.97 19.558H157.992L152.747 33.333H149.35L144.13 19.558H147.177L151.073 30.783Z" fill="#0D0E0E"/>
</svg>
