<svg width="32" height="30" viewBox="0 0 32 30" fill="none" xmlns="http://www.w3.org/2000/svg">
<path d="M29.6641 0.325581L1.24534 12.1536C1.24534 12.1536 -0.0982596 12.642 0.00574036 13.5428C0.11254 14.4452 1.20894 14.858 1.20894 14.858L8.35974 17.4108C8.35974 17.4108 10.5181 24.9196 10.9429 26.3484C11.3677 27.7732 11.7085 27.8068 11.7085 27.8068C12.1041 27.9892 12.4637 27.6988 12.4637 27.6988L17.0837 23.2312L24.2841 29.088C26.2317 29.9892 26.9405 28.1116 26.9405 28.1116L32.0001 1.04038C32.0001 -0.762818 29.6641 0.325581 29.6641 0.325581ZM24.6329 25.9344L16.9297 19.6704L14.5393 21.9812L15.0649 17.0648L25.3329 7.33318L11.3365 15.6428L5.12814 13.4268L28.8149 3.56758L24.6329 25.9344Z" fill="white"/>
</svg>
