<svg width="40" height="23" viewBox="0 0 40 23" fill="none" xmlns="http://www.w3.org/2000/svg">
<path fill-rule="evenodd" clip-rule="evenodd" d="M35.604 16.03C35.604 16.03 38.838 19.224 39.638 20.702C39.6536 20.7233 39.6657 20.7469 39.674 20.772C40 21.318 40.08 21.746 39.92 22.062C39.65 22.584 38.736 22.846 38.426 22.868H32.71C32.312 22.868 31.484 22.764 30.476 22.068C29.706 21.53 28.94 20.644 28.198 19.778C27.09 18.492 26.132 17.376 25.162 17.376C25.0395 17.3757 24.9178 17.396 24.802 17.436C24.068 17.668 23.136 18.714 23.136 21.5C23.136 22.372 22.448 22.868 21.966 22.868H19.348C18.456 22.868 13.812 22.556 9.694 18.214C4.648 12.898 0.115997 2.234 0.071997 2.14C-0.210003 1.45 0.381997 1.074 1.022 1.074H6.794C7.568 1.074 7.82 1.542 7.996 1.962C8.2 2.444 8.956 4.372 10.196 6.538C12.204 10.062 13.438 11.496 14.424 11.496C14.6092 11.4965 14.7914 11.4483 14.952 11.356C16.24 10.648 16 6.048 15.94 5.1C15.94 4.916 15.938 3.046 15.278 2.142C14.806 1.494 14.002 1.242 13.516 1.15C13.646 0.962 13.922 0.674 14.276 0.504C15.158 0.0639997 16.752 0 18.334 0H19.212C20.928 0.024 21.372 0.134 21.996 0.292C23.252 0.592 23.276 1.406 23.166 4.178C23.134 4.97 23.1 5.862 23.1 6.912C23.1 7.136 23.09 7.386 23.09 7.64C23.052 9.062 23.002 10.664 24.006 11.322C24.1362 11.4031 24.2866 11.4461 24.44 11.446C24.788 11.446 25.83 11.446 28.656 6.596C29.896 4.454 30.856 1.928 30.922 1.738C30.978 1.632 31.146 1.334 31.35 1.214C31.4951 1.13679 31.6577 1.09822 31.822 1.102H38.612C39.352 1.102 39.854 1.214 39.952 1.494C40.116 1.948 39.92 3.334 36.82 7.526C36.298 8.224 35.84 8.828 35.438 9.356C32.628 13.044 32.628 13.23 35.604 16.03Z" fill="white"/>
</svg>
