<svg width="19" height="20" viewBox="0 0 19 20" fill="none" xmlns="http://www.w3.org/2000/svg">
<path d="M0.336352 17.3969C-0.134792 17.9015 -0.107675 18.6925 0.396919 19.1636C0.901513 19.6348 1.6925 19.6077 2.16365 19.1031L1.25 18.25L0.336352 17.3969ZM18.3723 1.20717C18.3487 0.517222 17.7702 -0.0229189 17.0802 0.000733852L5.83682 0.38618C5.14687 0.409833 4.60673 0.988323 4.63039 1.67827C4.65404 2.36822 5.23253 2.90836 5.92248 2.88471L15.9166 2.54209L16.2592 12.5362C16.2829 13.2262 16.8614 13.7663 17.5513 13.7427C18.2413 13.719 18.7814 13.1405 18.7578 12.4506L18.3723 1.20717ZM1.25 18.25L2.16365 19.1031L18.0367 2.10308L17.123 1.25L16.2094 0.396919L0.336352 17.3969L1.25 18.25Z" fill="white"/>
</svg>
