<svg width="24" height="20" viewBox="0 0 24 20" fill="none" xmlns="http://www.w3.org/2000/svg">
<path d="M17.974 5.14152C17.642 5.07552 17.371 4.86852 17.232 4.57252C15.68 1.30152 12.089 -0.527481 8.49702 0.134519C5.22502 0.734519 2.66002 3.34652 2.11302 6.63552C1.95102 7.60652 1.96302 8.57852 2.14602 9.52552C2.20602 9.83452 2.07302 10.1785 1.80002 10.4265C0.655023 11.4675 -0.000976562 12.9505 -0.000976562 14.4965C-0.000976562 17.5285 2.46602 19.9965 5.49902 19.9965H16.499C20.635 19.9965 23.999 16.6325 23.999 12.4965C23.999 8.93152 21.465 5.83852 17.973 5.14252L17.974 5.14152ZM16.5 17.9955H5.50002C3.57002 17.9955 2.00002 16.4255 2.00002 14.4955C2.00002 13.5125 2.41802 12.5675 3.14602 11.9055C3.93202 11.1905 4.30102 10.1325 4.10902 9.14252C3.97102 8.43052 3.96302 7.69752 4.08502 6.96152C4.48802 4.53952 6.45002 2.54052 8.85602 2.09952C9.24102 2.02952 9.62402 1.99552 10.001 1.99552C12.313 1.99552 14.407 3.28452 15.423 5.42952C15.837 6.30152 16.623 6.91052 17.581 7.10252C20.14 7.61352 21.998 9.88052 21.998 12.4965C21.998 15.5285 19.531 17.9965 16.498 17.9965L16.5 17.9955ZM15.121 11.2885C15.512 11.6795 15.512 12.3115 15.121 12.7025L12.414 15.4095C12.027 15.7965 11.518 15.9915 11.009 15.9935L11 15.9955L10.991 15.9935C10.482 15.9915 9.97302 15.7965 9.58602 15.4095L6.87902 12.7025C6.48802 12.3115 6.48802 11.6795 6.87902 11.2885C7.27002 10.8975 7.90202 10.8975 8.29302 11.2885L10 12.9955V7.99552C10 7.44252 10.448 6.99552 11 6.99552C11.552 6.99552 12 7.44252 12 7.99552V12.9955L13.707 11.2885C14.098 10.8975 14.73 10.8975 15.121 11.2885Z" fill="white"/>
</svg>
